<?xml version="1.0" standalone="no"?>
<!DOCTYPE svg PUBLIC "-//W3C//DTD SVG 20010904//EN"
 "http://www.w3.org/TR/2001/REC-SVG-20010904/DTD/svg10.dtd">
<svg version="1.0" xmlns="http://www.w3.org/2000/svg"
 width="106.000000pt" height="106.000000pt" viewBox="0 0 106.000000 106.000000"
 preserveAspectRatio="xMidYMid meet">
<metadata>
Created by potrace 1.11, written by Peter Selinger 2001-2013
</metadata>
<g transform="translate(0.000000,106.000000) scale(0.100000,-0.100000)"
fill="#000000" stroke="none">
<path d="M135 945 c-109 -38 -157 -190 -110 -353 25 -86 78 -162 123 -176 31
-10 69 10 94 49 23 35 24 35 75 29 45 -5 59 -3 95 19 40 23 51 24 163 22 154
-4 346 -15 356 -21 14 -8 7 -154 -10 -222 -10 -37 -19 -95 -20 -128 -2 -59 -1
-62 23 -66 25 -5 26 -4 26 46 0 28 9 89 20 136 11 47 20 121 20 165 0 76 1 81
22 82 52 4 54 76 3 103 -31 17 -54 7 -68 -30 l-11 -30 -101 5 c-55 3 -164 7
-242 10 -137 3 -145 3 -190 -21 -49 -27 -82 -26 -110 1 -22 22 -30 19 -62 -27
-16 -24 -37 -51 -46 -61 -16 -18 -18 -18 -42 5 -79 73 -111 250 -62 345 45 86
123 100 181 32 20 -23 31 -29 47 -24 27 8 26 17 -5 55 -47 56 -108 76 -169 55z"/>
</g>
</svg>
